<svg id="Layer_1" data-name="Layer 1" xmlns="http://www.w3.org/2000/svg" viewBox="0 0 48 48"><defs><style>.cls-2{fill:#f57b2a}.cls-4{fill:#f89a26}</style></defs><path d="M31.59 5.71A24.14 24.14 0 0 0 24 4.49h-2.28l-.65.07h-.19l-.55.08h-.19l-.52.09h-.15l-.66.14h-.08l-.57.13h-.17l-.51.13h-.15l-.64.2-.58.2h-.16l-.5.19h-.13c-.42.16-.83.33-1.23.52l-.13.06-.49.23-.14.47-.59.3A24.25 24.25 0 0 0 7 11.52a24 24 0 0 0-7 16.53c.5-.67 1-1.32 1.52-2a42 42 0 0 1 14.85-11.7 16.57 16.57 0 0 1 2.84-1.2c1.05-.4 2.11-.76 3.2-1.07l.63-.17h.06l.58-.15h.1l.54-.13h.13l.52-.12h.15l.5-.11h.16l.51-.1h.16l.51-.09h.16l.53-.08h.13l.58-.09h.09l1.37-.16h.31c1.28-.12 2.62-.21 3.94-.21h.19a40.93 40.93 0 0 1 6.1.47 24.08 24.08 0 0 0-8.77-5.43z" fill="#f9c723"/><path id="path68" class="cls-2" d="M15.08 41.81a16.22 16.22 0 0 1-6.17-7.9 25.08 25.08 0 0 0-2.67 3.67A24.52 24.52 0 0 0 4 41.8c.39.59.81 1.16 1.25 1.71h13.14a16.17 16.17 0 0 1-3.31-1.7"/><path id="path70" class="cls-2" d="M38.82 34.61a31.33 31.33 0 0 1-2.06 3.58 16.13 16.13 0 0 1-7.15 5.32h13.11a24.3 24.3 0 0 0 3-4.86 25.91 25.91 0 0 1-4.15-2.07 24.51 24.51 0 0 1-2.78-2"/><path id="path84" d="M45.74 18.31l-.16-.31-.12-.24c-1.65-.22-3.3-.43-5-.56-1.83-.16-3.65-.24-5.47-.29a17.28 17.28 0 0 1 1.25 1.32A17.06 17.06 0 0 1 38 20.68 16.07 16.07 0 0 1 39.39 33a15.62 15.62 0 0 1-.58 1.62 25.16 25.16 0 0 0 6.93 4 23.65 23.65 0 0 0 2.17-8c.06-.7.09-1.4.09-2.11a23.9 23.9 0 0 0-2.26-10.18" fill="#f14633"/><path id="path86" class="cls-4" d="M0 28v.44a23.85 23.85 0 0 0 4 13.32 41.88 41.88 0 0 1 4.88-7.89 16 16 0 0 1 7.46-19.52A42 42 0 0 0 0 28"/><path id="path88" class="cls-4" d="M40.36 10.93a40.7 40.7 0 0 0-6.09-.46h-.19c-1.32 0-2.62.06-3.91.18a41.3 41.3 0 0 0-11 2.54A16 16 0 0 1 35 16.88a99.3 99.3 0 0 1 10.42.85 24.18 24.18 0 0 0-5.1-6.8"/></svg>